<?xml version="1.0" encoding="utf-8"?>
<!-- Generator: Adobe Illustrator 23.0.2, SVG Export Plug-In . SVG Version: 6.00 Build 0)  -->
<svg version="1.1" id="Layer_1" xmlns="http://www.w3.org/2000/svg" xmlns:xlink="http://www.w3.org/1999/xlink" x="0px" y="0px"
	 viewBox="0 0 100 100" style="enable-background:new 0 0 100 100;" xml:space="preserve">
<style type="text/css">
	.st0{fill:#9CDAF1;}
	.st1{fill:#7DBBE6;}
	.st2{fill:#F4CBB2;}
	.st3{fill:#FFFFFF;}
	.st4{fill:#AD5C51;}
	.st5{fill:#C3E4D8;}
	.st6{fill:#647984;}
</style>
<g>
	<path id="puddle" class="st0" d="M78.5,84.17c0,5.43-12.58,9.84-28.1,9.84c-15.52,0-28.11-4.4-28.11-9.84s12.58-9.84,28.11-9.84
		C65.91,74.33,78.5,78.73,78.5,84.17z"/>
	<g id="shadow-legs">
		<path class="st1" d="M42.75,93.64v-7.01c0-0.91-0.16-1.66-0.44-2.3c1.81,1.41,1.94,4.95,1.94,4.95v4.5
			c1.63,0.13,3.32,0.2,5.04,0.23l-0.05-4.48c-0.25-6.12-5.5-6.87-5.5-6.87c-1.92-0.44-1.89,0.53-1.7,1.15
			C40.18,80.59,35.14,81,35.14,81c-1.75,0.62-0.13,1.75-0.13,1.75c2.75,1,3,4,3,4V93C39.52,93.26,41.11,93.47,42.75,93.64
			L42.75,93.64z"/>
		<path class="st1" d="M64.86,81c0,0-5.04-0.41-6.92,2.79c0.19-0.62,0.22-1.58-1.7-1.15c0,0-5.25,0.75-5.49,6.87L50.7,94
			c1.72-0.01,3.41-0.07,5.04-0.18v-4.56c0,0,0.12-3.54,1.94-4.95c-0.27,0.64-0.44,1.4-0.44,2.3v7.08c1.64-0.14,3.23-0.34,4.75-0.58
			v-6.38c0,0,0.25-3,3-4C64.99,82.75,66.61,81.63,64.86,81L64.86,81z"/>
	</g>
	<path id="cat" d="M99.99,43.39l0.07-0.37c-8.25-1.65-16.71-1.67-21.82-1.45c0.84-3.03,1.09-6.52,1.09-10.4
		c0-5.58-2.09-10.04-5.5-13.43c0.59-1.92,1.39-6.18-0.79-11.63c0,0-3.85-1.22-12.55,4.6c-3.41-0.85-7.04-1.27-10.67-1.27
		c-4,0-8.04,0.51-11.8,1.54c-8.98-6.13-12.94-4.87-12.94-4.87c-2.59,6.47-0.99,11.26-0.5,12.45c-3.04,3.28-4.9,7.47-4.9,12.61
		c0,3.88,0.44,7.36,1.52,10.38c-5.16-0.19-13.31-0.12-21.27,1.47l0.07,0.37c8-1.6,16.2-1.66,21.33-1.46c0.24,0.63,0.5,1.23,0.8,1.82
		C17.07,43.91,8.4,44.56,0.1,46.9l0.1,0.36c8.37-2.36,17.11-2.99,22.13-3.14c3.03,5.65,9.01,9.3,19.64,10.45
		c-1.51,1.01-3.05,2.74-3.67,5.66c-2.06,0.98-8.57,3.38-12.47-3.33c0,0-2.19-4-6.37-4.31c0,0-4.06-0.06-0.28,2.53
		c0,0,2.72,1.28,4.59,6.09c0,0,2.45,8.2,14.24,5.57v8.48c0,0-0.25,3-3,4c0,0-1.62,1.12,0.13,1.75c0,0,7.62,0.62,7.62-5.62v-9.24
		c0,0-0.3-3.67,1.5-4.94v15.18c0,0-0.12,3.62-2,5c0,0-1.25,2.25,1.5,1.62c0,0,5.25-0.75,5.5-6.87l0.12-15.36h1.26l0.12,15.36
		c0.25,6.12,5.49,6.87,5.49,6.87c2.75,0.62,1.5-1.62,1.5-1.62c-1.87-1.37-2-5-2-5V61.32c1.8,1.4,1.5,4.81,1.5,4.81v9.24
		c0,6.24,7.62,5.62,7.62,5.62c1.75-0.62,0.13-1.75,0.13-1.75c-2.75-1-3-4-3-4V63.13c0-4.72-1.99-7.23-3.93-8.55
		c11.34-1.12,16.78-4.79,19.29-10.48c4.97,0.14,13.91,0.74,22.46,3.15l0.1-0.36c-8.5-2.4-17.38-3.02-22.4-3.16
		c0.24-0.57,0.45-1.17,0.63-1.79c5.09-0.21,13.59-0.21,21.87,1.44L99.99,43.39z"/>
	<path id="face" class="st2" d="M68.24,30.91c2.44,2.21,3.87,4.88,3.87,7.76c0,13.44-10.02,13.81-22.38,13.81
		c-12.36,0-22.38-1.86-22.38-13.81c0-2.86,1.41-5.52,3.82-7.72c4.02-3.67,10.83-1.73,18.56-1.73
		C57.43,29.22,64.21,27.26,68.24,30.91L68.24,30.91z"/>
	<path id="eyes" class="st3" d="M42.29,39.35c0,3.7-2.08,6.7-4.66,6.7c-2.57,0-4.66-3-4.66-6.7c0-3.7,2.08-6.7,4.66-6.7
		C40.21,32.65,42.29,35.65,42.29,39.35z M67.28,39.35c0,3.7-2.08,6.7-4.66,6.7c-2.57,0-4.66-3-4.66-6.7c0-3.7,2.08-6.7,4.66-6.7
		C65.19,32.65,67.28,35.65,67.28,39.35z"/>
	<g>
		<path id="pupils" class="st4" d="M40.8,39.44c0,2.47-1.39,4.47-3.1,4.47c-1.71,0-3.1-2-3.1-4.47c0-2.47,1.39-4.47,3.1-4.47
			C39.41,34.97,40.8,36.97,40.8,39.44L40.8,39.44z M65.78,39.44c0,2.47-1.39,4.47-3.1,4.47c-1.71,0-3.1-2-3.1-4.47
			c0-2.47,1.39-4.47,3.1-4.47C64.39,34.97,65.78,36.97,65.78,39.44L65.78,39.44z"/>
		<circle id="nose" class="st4" cx="49.81" cy="45.31" r="1.16"/>
		<path id="mouth" class="st4" d="M47.09,48.25c-0.07-0.2,0.03-0.41,0.23-0.48c0.19-0.07,0.41,0.03,0.48,0.23
			c0.3,0.85,1.1,1.41,2,1.41s1.7-0.57,2-1.41c0.07-0.2,0.28-0.3,0.48-0.23c0.2,0.07,0.3,0.28,0.23,0.48
			c-0.4,1.14-1.49,1.91-2.7,1.91C48.58,50.16,47.5,49.4,47.09,48.25L47.09,48.25z"/>
	</g>
	<path id="octo" class="st5" d="M21.27,53.58c0,0.31-0.36,0.56-0.81,0.56c-0.45,0-0.81-0.25-0.81-0.56c0-0.31,0.36-0.56,0.81-0.56
		C20.9,53.01,21.27,53.27,21.27,53.58L21.27,53.58z M23.52,54.83c0,0.31-0.36,0.56-0.81,0.56c-0.45,0-0.81-0.25-0.81-0.56
		c0-0.31,0.36-0.56,0.81-0.56C23.15,54.26,23.52,54.51,23.52,54.83L23.52,54.83z M24.89,56.45c0,0.31-0.36,0.56-0.81,0.56
		c-0.45,0-0.81-0.25-0.81-0.56c0-0.31,0.36-0.56,0.81-0.56C24.53,55.89,24.89,56.14,24.89,56.45L24.89,56.45z M26.14,58.32
		c0,0.31-0.36,0.56-0.81,0.56c-0.45,0-0.81-0.25-0.81-0.56c0-0.31,0.36-0.56,0.81-0.56C25.78,57.76,26.14,58.01,26.14,58.32
		L26.14,58.32z M27.51,60.07c0,0.31-0.36,0.56-0.81,0.56c-0.45,0-0.81-0.25-0.81-0.56c0-0.31,0.36-0.56,0.81-0.56
		C27.15,59.51,27.51,59.76,27.51,60.07L27.51,60.07z M29.39,61.57c0,0.31-0.36,0.56-0.81,0.56c-0.45,0-0.81-0.25-0.81-0.56
		c0-0.31,0.36-0.56,0.81-0.56C29.02,61.01,29.39,61.26,29.39,61.57L29.39,61.57z M32.01,62.57c0,0.31-0.36,0.56-0.81,0.56
		c-0.45,0-0.81-0.25-0.81-0.56c0-0.31,0.36-0.56,0.81-0.56C31.65,62.01,32.01,62.26,32.01,62.57L32.01,62.57z M34.62,62.57
		c0,0.31-0.36,0.56-0.81,0.56c-0.45,0-0.81-0.25-0.81-0.56c0-0.31,0.36-0.56,0.81-0.56C34.26,62.01,34.62,62.26,34.62,62.57
		L34.62,62.57z M37.27,62.14c0,0.31-0.36,0.56-0.81,0.56c-0.45,0-0.81-0.25-0.81-0.56c0-0.31,0.36-0.56,0.81-0.56
		C36.91,61.57,37.27,61.82,37.27,62.14L37.27,62.14z"/>
	<path id="drop" class="st0" d="M18.29,55.24l-0.81,2.83c0,0-0.21,1.02,0.75,1.2c1.01-0.02,0.92-0.96,0.85-1.26L18.29,55.24z"/>
</g>
</svg>
